<svg width="100" height="100" viewBox="0 0 100 100" fill="none" xmlns="http://www.w3.org/2000/svg">
<g clip-path="url(#clip0_1601_1143)">
<circle cx="50" cy="50" r="50" fill="url(#paint0_linear_1601_1143)"/>
<path d="M75.6806 50.6875C75.6806 65.0431 64.0431 76.6806 49.6875 76.6806C35.3319 76.6806 23.6945 65.0431 23.6945 50.6875C23.6945 36.3319 35.3319 24.6945 49.6875 24.6945C64.0431 24.6945 75.6806 36.3319 75.6806 50.6875Z" stroke="#715FFF" stroke-width="2" stroke-linecap="round"/>
<path d="M81.375 50.6875C81.375 58.6043 78.4115 66.2345 73.0677 72.0758C67.724 77.9172 60.3872 81.5467 52.5016 82.2498M33.8438 78.1297C29.5946 75.6765 25.9733 72.27 23.2649 68.1788C20.5566 64.0876 18.8353 59.4233 18.2367 54.5535C17.6381 49.6837 18.1785 44.7415 19.8154 40.1161C21.4523 35.4907 24.1408 31.3087 27.6693 27.8994C31.1978 24.4902 35.4697 21.9468 40.1486 20.4698C44.8275 18.9929 49.7854 18.6225 54.6317 19.3881C59.4781 20.1537 64.0805 22.0342 68.0762 24.8814C72.072 27.7287 75.352 31.465 77.6578 35.7959" stroke="white" stroke-opacity="0.2"/>
</g>
<defs>
<linearGradient id="paint0_linear_1601_1143" x1="50" y1="0" x2="50" y2="100" gradientUnits="userSpaceOnUse">
<stop stop-color="white" stop-opacity="0.1"/>
<stop offset="1" stop-color="white" stop-opacity="0"/>
</linearGradient>
<clipPath id="clip0_1601_1143">
<rect width="100" height="100" fill="white"/>
</clipPath>
</defs>
</svg>
