<svg width="30" height="26" viewBox="0 0 30 26" fill="none" xmlns="http://www.w3.org/2000/svg">
<path d="M15.6979 12.0448L25.6542 2.98865C25.8204 2.83754 25.9131 2.63679 25.9131 2.42803C25.9131 2.21926 25.8204 2.01851 25.6542 1.8674L25.6429 1.85765C25.5623 1.78414 25.4653 1.72561 25.3578 1.68561C25.2503 1.64562 25.1346 1.62499 25.0176 1.62499C24.9006 1.62499 24.7848 1.64562 24.6773 1.68561C24.5698 1.72561 24.4729 1.78414 24.3923 1.85765L15.0173 10.3857L5.64604 1.85765C5.56546 1.78415 5.46847 1.72561 5.36097 1.68562C5.25347 1.64562 5.13771 1.62499 5.02072 1.62499C4.90374 1.62499 4.78797 1.64562 4.68047 1.68562C4.57297 1.72561 4.47599 1.78415 4.39541 1.85765L4.38416 1.8674C4.21795 2.01851 4.12523 2.21926 4.12523 2.42803C4.12523 2.63679 4.21795 2.83755 4.38416 2.98865L14.3404 12.0448C14.428 12.1244 14.5333 12.1878 14.6499 12.2312C14.7666 12.2745 14.8922 12.2968 15.0192 12.2968C15.1461 12.2968 15.2717 12.2745 15.3884 12.2312C15.505 12.1878 15.6104 12.1244 15.6979 12.0448Z" fill="#6757E8" fill-opacity="0.3"/>
<path d="M15.6979 18.2071L25.6542 9.151C25.8204 8.9999 25.9131 8.79914 25.9131 8.59038C25.9131 8.38161 25.8204 8.18086 25.6542 8.02975L25.6429 8.02C25.5623 7.9465 25.4653 7.88797 25.3578 7.84797C25.2503 7.80797 25.1346 7.78734 25.0176 7.78734C24.9006 7.78734 24.7848 7.80797 24.6773 7.84797C24.5698 7.88797 24.4729 7.9465 24.3923 8.02L15.0173 16.548L5.64604 8.02001C5.56546 7.9465 5.46847 7.88797 5.36097 7.84797C5.25347 7.80797 5.13771 7.78735 5.02072 7.78735C4.90374 7.78735 4.78797 7.80797 4.68047 7.84797C4.57297 7.88797 4.47599 7.9465 4.39541 8.02001L4.38416 8.02976C4.21795 8.18086 4.12523 8.38162 4.12523 8.59038C4.12523 8.79914 4.21795 8.9999 4.38416 9.15101L14.3404 18.2071C14.428 18.2868 14.5333 18.3502 14.6499 18.3935C14.7666 18.4368 14.8922 18.4592 15.0192 18.4592C15.1461 18.4592 15.2717 18.4368 15.3884 18.3935C15.505 18.3502 15.6104 18.2868 15.6979 18.2071Z" fill="#6757E8" fill-opacity="0.6"/>
<path d="M15.6979 24.3694L25.6542 15.3133C25.8204 15.1622 25.9131 14.9614 25.9131 14.7527C25.9131 14.5439 25.8204 14.3432 25.6542 14.192L25.6429 14.1823C25.5623 14.1088 25.4653 14.0503 25.3578 14.0103C25.2503 13.9703 25.1346 13.9496 25.0176 13.9496C24.9006 13.9496 24.7848 13.9703 24.6773 14.0103C24.5698 14.0503 24.4729 14.1088 24.3923 14.1823L15.0173 22.7103L5.64604 14.1823C5.56546 14.1088 5.46847 14.0503 5.36097 14.0103C5.25347 13.9703 5.13771 13.9496 5.02072 13.9496C4.90374 13.9496 4.78797 13.9703 4.68047 14.0103C4.57297 14.0503 4.47599 14.1088 4.39541 14.1823L4.38416 14.192C4.21795 14.3432 4.12523 14.5439 4.12523 14.7527C4.12523 14.9614 4.21795 15.1622 4.38416 15.3133L14.3404 24.3694C14.428 24.4491 14.5333 24.5125 14.6499 24.5558C14.7666 24.5991 14.8922 24.6215 15.0192 24.6215C15.1461 24.6215 15.2717 24.5991 15.3884 24.5558C15.505 24.5125 15.6104 24.4491 15.6979 24.3694Z" fill="#6757E8"/>
</svg>
