<svg width="34" height="33" viewBox="0 0 34 33" fill="none" xmlns="http://www.w3.org/2000/svg">
<path d="M28.0827 21.7499H5.91602C4.65624 21.7499 3.44806 22.2504 2.55726 23.1412C1.66646 24.032 1.16602 25.2401 1.16602 26.4999C1.16602 27.7597 1.66646 28.9679 2.55726 29.8587C3.44806 30.7495 4.65624 31.2499 5.91602 31.2499H28.0827C29.3425 31.2499 30.5506 30.7495 31.4414 29.8587C32.3322 28.9679 32.8327 27.7597 32.8327 26.4999C32.8327 25.2401 32.3322 24.032 31.4414 23.1412C30.5506 22.2504 29.3425 21.7499 28.0827 21.7499ZM26.4993 15.4166C28.1791 15.4166 29.79 14.7493 30.9777 13.5616C32.1654 12.3739 32.8327 10.763 32.8327 9.08325C32.8327 7.40355 32.1654 5.79264 30.9777 4.60491C29.79 3.41718 28.1791 2.74992 26.4993 2.74992C24.8196 2.74992 23.2087 3.41718 22.021 4.60491C20.8333 5.79264 20.166 7.40355 20.166 9.08325C20.166 10.763 20.8333 12.3739 22.021 13.5616C23.2087 14.7493 24.8196 15.4166 26.4993 15.4166ZM1.16602 9.08325L8.29102 1.95825L15.416 9.08325L8.29102 16.2083L1.16602 9.08325Z" stroke="white" stroke-width="2" stroke-linecap="round" stroke-linejoin="round"/>
</svg>
