<svg width="88" height="24" viewBox="0 0 88 24" fill="none" xmlns="http://www.w3.org/2000/svg">
<path d="M11.9573 13.4883L14.2952 3.69727L17.3362 14.7715L14.8225 24H7.77367L0.795158 0.673828H8.52953L11.9573 13.4883ZM28.4455 24H21.0276L14.6291 0.673828H22.469L28.4455 24ZM28.5159 0.673828H35.5998L29.2717 22.7871L26.1077 10.3594L28.5159 0.673828ZM41.17 21.4512H33.5411L35.1583 16.8281H39.377L33.1368 0.673828H40.713L50.0118 24H42.1544L41.17 21.4512ZM31.4669 24H23.961L32.293 1.72852L35.7384 10.9922L31.4669 24ZM49.5351 13.4883L51.873 3.69727L54.914 14.7715L52.4003 24H45.3515L38.373 0.673828H46.1073L49.5351 13.4883ZM66.0234 24H58.6054L52.207 0.673828H60.0468L66.0234 24ZM66.0937 0.673828H73.1777L66.8495 22.7871L63.6855 10.3594L66.0937 0.673828ZM78.7478 21.4512H71.1189L72.7361 16.8281H76.9548L70.7146 0.673828H78.2908L87.5896 24H79.7322L78.7478 21.4512ZM69.0447 24H61.5388L69.8709 1.72852L73.3162 10.9922L69.0447 24Z" fill="white"/>
</svg>
