<svg width="20" height="20" viewBox="0 0 20 20" fill="none" xmlns="http://www.w3.org/2000/svg">
<path d="M8.586 10L0.291996 1.70804C0.199021 1.61507 0.125268 1.50469 0.0749502 1.38321C0.024632 1.26173 -0.00126648 1.13153 -0.00126648 1.00004C-0.00126648 0.868555 0.024632 0.738355 0.0749502 0.616876C0.125268 0.495397 0.199021 0.385018 0.291996 0.292042C0.384972 0.199066 0.495351 0.125314 0.61683 0.074996C0.738309 0.0246778 0.868509 -0.0012207 0.999997 -0.0012207C1.13148 -0.0012207 1.26168 0.0246778 1.38316 0.074996C1.50464 0.125314 1.61502 0.199066 1.708 0.292042L10 8.58604L18.292 0.292042C18.4798 0.104269 18.7344 -0.0012207 19 -0.0012207C19.2655 -0.0012207 19.5202 0.104269 19.708 0.292042C19.8958 0.479816 20.0013 0.734491 20.0013 1.00004C20.0013 1.26559 19.8958 1.52027 19.708 1.70804L11.414 10L19.708 18.292C19.8958 18.4798 20.0013 18.7345 20.0013 19C20.0013 19.2656 19.8958 19.5203 19.708 19.708C19.5202 19.8958 19.2655 20.0013 19 20.0013C18.7344 20.0013 18.4798 19.8958 18.292 19.708L10 11.414L1.708 19.708C1.52022 19.8958 1.26555 20.0013 0.999997 20.0013C0.734445 20.0013 0.47977 19.8958 0.291996 19.708C0.104223 19.5203 -0.00126648 19.2656 -0.00126648 19C-0.00126648 18.7345 0.104223 18.4798 0.291996 18.292L8.586 10Z" fill="white"/>
</svg>
